<?xml version="1.0" standalone="no"?>
<!DOCTYPE svg PUBLIC "-//W3C//DTD SVG 20010904//EN"
 "http://www.w3.org/TR/2001/REC-SVG-20010904/DTD/svg10.dtd">
<svg version="1.0" xmlns="http://www.w3.org/2000/svg"
 width="200.000000pt" height="200.000000pt" viewBox="0 0 200.000000 200.000000"
 preserveAspectRatio="xMidYMid meet">
<metadata>
Created by potrace 1.11, written by Peter Selinger 2001-2013
</metadata>
<g transform="translate(0.000000,200.000000) scale(0.100000,-0.100000)"
fill="#000000" stroke="none">
<path d="M0 1000 l0 -1000 1000 0 1000 0 0 1000 0 1000 -1000 0 -1000 0 0
-1000z m1208 640 c53 -61 162 -273 162 -316 0 -22 -10 -41 -37 -67 -20 -21
-41 -37 -47 -36 -6 0 -5 3 2 6 6 2 12 9 12 14 0 6 -8 5 -20 -1 -11 -6 -18 -15
-15 -20 9 -15 -62 -23 -95 -11 -17 5 -45 20 -63 32 l-32 22 34 -36 c19 -20 46
-37 60 -39 21 -2 27 -9 29 -33 5 -39 -15 -105 -32 -105 -19 0 -35 22 -42 59
-5 25 -10 30 -23 25 -9 -4 -39 -9 -68 -12 l-52 -4 -7 -47 c-13 -87 -45 -90
-70 -5 -13 45 -19 54 -38 54 -13 0 -43 7 -66 15 -48 17 -60 13 -60 -19 0 -13
-7 -30 -16 -37 -14 -11 -18 -10 -30 5 -7 10 -16 39 -19 65 -3 25 -12 67 -20
92 -31 97 -12 172 64 248 21 21 60 46 87 56 116 40 166 60 163 65 -1 3 3 15 9
27 8 15 21 22 40 22 40 -1 112 12 118 22 11 18 30 7 72 -41z m-797 -769 c36
-36 38 -61 5 -61 -16 0 -27 7 -31 20 -9 28 -51 37 -75 15 -16 -14 -20 -31 -20
-80 0 -34 5 -66 12 -73 19 -19 66 -14 80 8 7 11 23 20 35 20 48 0 12 -63 -45
-81 -102 -30 -175 82 -128 195 30 71 114 90 167 37z m203 -86 l41 -110 3 113
3 112 70 0 c65 0 73 -2 100 -29 60 -60 30 -128 -61 -139 l-55 -7 -3 -42 -3
-41 -48 0 c-42 -1 -50 3 -59 24 -10 20 -19 24 -55 24 -37 0 -46 -4 -55 -25 -8
-17 -20 -25 -37 -25 -14 0 -25 3 -25 8 0 4 13 41 28 82 16 41 36 97 46 123 16
42 21 48 43 45 22 -3 30 -16 67 -113z m386 33 c13 -46 26 -89 30 -96 3 -7 19
29 36 82 27 91 30 96 57 96 15 0 27 -3 27 -7 0 -4 -19 -63 -42 -130 -42 -120
-44 -123 -73 -123 -29 0 -31 3 -70 117 l-40 117 -3 -117 c-3 -117 -3 -117 -27
-117 l-25 0 0 130 0 130 54 0 53 0 23 -82z m295 -20 c21 -57 42 -107 47 -113
4 -5 8 41 8 103 l0 112 60 0 c64 0 113 -18 124 -45 11 -30 6 -62 -14 -88 -24
-31 -25 -35 -2 -70 l19 -27 25 67 c15 38 34 90 44 116 15 42 20 48 43 45 26
-3 33 -16 96 -190 l25 -68 -30 0 c-23 0 -31 5 -36 25 -6 22 -11 25 -55 25 -44
0 -49 -3 -55 -25 -7 -27 -32 -33 -52 -13 -9 9 -12 9 -12 0 0 -7 -9 -12 -20
-12 -14 0 -27 14 -42 45 -17 34 -28 45 -45 45 -21 0 -23 -5 -23 -45 l0 -45
-50 0 c-44 0 -52 3 -62 25 -10 22 -18 25 -59 25 -42 0 -48 -3 -53 -25 -5 -20
-13 -25 -36 -25 -28 0 -29 1 -19 28 6 15 26 69 45 120 41 114 40 112 68 112
21 0 28 -13 61 -102z m-900 -243 c14 -13 25 -34 24 -47 0 -22 -1 -22 -12 -4
-38 62 -87 74 -127 31 -49 -52 -32 -187 26 -201 39 -10 77 7 94 41 11 24 15
26 18 12 6 -30 -25 -65 -65 -73 -47 -9 -98 17 -112 59 -26 72 -4 173 42 195
40 19 86 14 112 -13z m207 -4 c32 -28 33 -32 33 -106 0 -74 -1 -78 -33 -106
-36 -32 -69 -36 -112 -14 -34 17 -45 35 -54 87 -23 129 81 216 166 139z m212
-10 c27 -27 30 -37 31 -89 0 -33 -6 -71 -14 -85 -17 -31 -76 -57 -131 -57
l-40 0 0 136 0 137 61 -6 c52 -4 67 -10 93 -36z m216 29 c0 -6 -30 -10 -70
-10 l-70 0 0 -50 0 -50 60 0 c33 0 60 -4 60 -10 0 -6 -27 -10 -60 -10 l-60 0
0 -55 0 -55 70 0 c40 0 70 -4 70 -10 0 -6 -33 -10 -80 -10 l-80 0 0 135 0 135
80 0 c47 0 80 -4 80 -10z m154 -11 c25 -20 36 -59 16 -59 -5 0 -10 5 -10 12 0
23 -34 48 -66 48 -36 0 -64 -22 -64 -49 0 -24 15 -36 74 -58 85 -32 108 -96
45 -128 -53 -28 -130 -8 -144 36 -7 23 5 42 13 20 22 -63 142 -70 142 -7 0 29
-24 50 -75 66 -22 7 -48 19 -57 28 -18 15 -24 58 -10 78 25 37 96 44 136 13z"/>
<path d="M1025 1510 c-10 -16 4 -50 21 -50 11 0 14 8 12 27 -3 28 -22 41 -33
23z"/>
<path d="M712 813 c2 -27 8 -39 21 -41 32 -6 65 7 72 29 10 30 -12 49 -57 49
-39 0 -39 0 -36 -37z"/>
<path d="M531 789 c-17 -50 -14 -59 20 -59 32 0 33 2 8 68 -11 29 -15 28 -28
-9z"/>
<path d="M1400 814 c0 -34 1 -35 36 -32 71 6 68 68 -2 68 -32 0 -34 -2 -34
-36z"/>
<path d="M1217 788 c-17 -51 -15 -58 20 -58 22 0 24 3 17 33 -15 71 -20 74
-37 25z"/>
<path d="M1632 781 c-16 -52 -16 -51 19 -51 32 0 33 2 8 68 -11 30 -14 28 -27
-17z"/>
<path d="M485 535 c-22 -21 -25 -33 -25 -90 0 -57 3 -69 26 -92 21 -21 32 -24
61 -20 19 4 41 14 49 24 17 23 28 95 19 130 -17 70 -84 95 -130 48z"/>
<path d="M682 449 l3 -114 43 1 c66 1 95 35 95 109 0 73 -28 105 -97 112 l-47
6 3 -114z"/>
</g>
</svg>
